<svg width="320" height="200" viewBox="0 0 320 200" fill="none" xmlns="http://www.w3.org/2000/svg">
<path d="M160.065 102.956C184.857 102.956 204.955 82.8575 204.955 58.0651C204.955 33.2727 184.857 13.1745 160.065 13.1745C135.272 13.1745 115.174 33.2727 115.174 58.0651C115.174 82.8575 135.272 102.956 160.065 102.956Z" stroke="#090909" stroke-width="10.8422"/>
<path fill-rule="evenodd" clip-rule="evenodd" d="M141.167 114.92C147.108 116.894 153.461 117.962 160.065 117.962C166.22 117.962 172.158 117.034 177.747 115.31L176.202 129.029C171.012 130.205 165.611 130.825 160.065 130.825C154.088 130.825 148.281 130.105 142.723 128.746L141.167 114.92Z" fill="#090909"/>
<path fill-rule="evenodd" clip-rule="evenodd" d="M211.84 86.0057C210.058 89.1191 207.987 92.046 205.664 94.7501C209.314 95.8999 213.2 96.5199 217.23 96.5199C238.469 96.5199 255.687 79.3021 255.687 58.0628C255.687 36.8235 238.469 19.6057 217.23 19.6057C213.199 19.6057 209.312 20.226 205.661 21.3764C207.984 24.0803 210.055 27.0071 211.837 30.1203C213.584 29.7854 215.386 29.61 217.23 29.61C232.944 29.61 245.683 42.3487 245.683 58.0628C245.683 73.7768 232.944 86.5155 217.23 86.5155C215.387 86.5155 213.585 86.3402 211.84 86.0057Z" fill="#090909"/>
<path fill-rule="evenodd" clip-rule="evenodd" d="M108.16 30.1199C109.942 27.0065 112.013 24.0795 114.336 21.3755C110.686 20.2257 106.8 19.6057 102.77 19.6057C81.5308 19.6057 64.3127 36.8236 64.3127 58.0627C64.3127 79.3021 81.5308 96.5198 102.77 96.5198C106.802 96.5198 110.688 95.8995 114.339 94.749C112.016 92.0452 109.945 89.1183 108.162 86.0053C106.416 86.3402 104.614 86.5155 102.77 86.5155C87.0558 86.5155 74.3171 73.7768 74.3171 58.0627C74.3171 42.3487 87.0558 29.61 102.77 29.61C104.613 29.61 106.415 29.7853 108.16 30.1199Z" fill="#090909"/>
<path d="M8.59965 183.271V149.059H20.4807C23.6936 149.059 26.2304 149.886 28.0913 151.54C29.9522 153.194 30.8826 155.317 30.8826 157.91C30.8826 159.532 30.5168 160.964 29.7852 162.204C29.0695 163.445 28.0515 164.423 26.7314 165.139V165.425C27.3517 165.664 27.9482 165.99 28.5207 166.403C29.0933 166.817 29.658 167.342 30.2146 167.978C30.7713 168.614 31.2166 169.409 31.5507 170.364C31.8847 171.302 32.0517 172.328 32.0517 173.441C32.0517 175.445 31.5586 177.203 30.5725 178.714C29.6023 180.225 28.3219 181.362 26.7314 182.125C25.1409 182.889 23.3834 183.271 21.4589 183.271H8.59965ZM13.729 178.785H20.3376C22.2144 178.785 23.7254 178.308 24.8705 177.354C26.0157 176.4 26.5883 174.984 26.5883 173.107C26.5883 171.867 26.2702 170.817 25.634 169.958C24.9978 169.099 24.1946 168.495 23.2244 168.145C22.2701 167.779 21.1885 167.596 19.9797 167.596H13.729V178.785ZM13.729 163.493H20.0513C21.7372 163.493 23.0892 163.023 24.1071 162.085C25.1409 161.147 25.6578 159.922 25.6578 158.411C25.6578 156.964 25.1409 155.795 24.1071 154.904C23.0892 154.013 21.769 153.568 20.1467 153.568H13.729V163.493ZM36.4176 170.507C36.4176 167.978 36.9902 165.688 38.1353 163.636C39.2964 161.584 40.9108 159.978 42.9784 158.817C45.0461 157.655 47.3682 157.075 49.9449 157.075C52.5215 157.075 54.8357 157.663 56.8874 158.84C58.9551 160.017 60.5535 161.632 61.6828 163.683C62.828 165.719 63.4005 167.994 63.4005 170.507C63.4005 173.02 62.82 175.302 61.6589 177.354C60.5138 179.39 58.9074 180.996 56.8397 182.173C54.772 183.334 52.4579 183.915 49.8971 183.915C45.9845 183.915 42.7558 182.65 40.211 180.121C37.6821 177.577 36.4176 174.372 36.4176 170.507ZM41.6424 170.507C41.6424 173.052 42.4138 175.151 43.9566 176.805C45.5153 178.443 47.4955 179.262 49.8971 179.262C52.3147 179.262 54.2949 178.435 55.8377 176.781C57.3964 175.127 58.1757 173.036 58.1757 170.507C58.1757 167.962 57.3964 165.87 55.8377 164.232C54.2949 162.594 52.3147 161.775 49.8971 161.775C47.4796 161.775 45.4994 162.602 43.9566 164.256C42.4138 165.894 41.6424 167.978 41.6424 170.507ZM69.5797 183.271V157.719H74.5659V161.131H74.8999C75.4566 159.986 76.395 159.023 77.7151 158.244C79.0352 157.465 80.5939 157.075 82.3912 157.075C85.2382 157.075 87.5126 157.997 89.2145 159.842C90.9163 161.687 91.7672 164.025 91.7672 166.857V183.271H86.6378V167.835C86.6378 166.069 86.0891 164.638 84.9917 163.54C83.9101 162.427 82.5502 161.87 80.912 161.87C79.1306 161.87 77.6515 162.491 76.4745 163.731C75.2975 164.956 74.709 166.499 74.709 168.36V183.271H69.5797Z" fill="#090909"/>
<path d="M99.1631 183.271V146.625H104.292V161.441H104.579C104.833 161.027 105.167 160.606 105.581 160.176C106.01 159.747 106.559 159.286 107.227 158.793C107.911 158.284 108.754 157.87 109.756 157.552C110.774 157.234 111.855 157.075 113 157.075C116.547 157.075 119.45 158.339 121.708 160.868C123.967 163.381 125.096 166.618 125.096 170.578C125.096 174.539 123.951 177.752 121.661 180.217C119.37 182.682 116.38 183.915 112.69 183.915C109.239 183.915 106.503 182.491 104.483 179.644H104.149V183.271H99.1631ZM104.149 170.507C104.149 173.004 104.857 175.087 106.273 176.757C107.688 178.427 109.589 179.262 111.975 179.262C114.36 179.262 116.269 178.467 117.7 176.877C119.148 175.286 119.871 173.163 119.871 170.507C119.871 167.93 119.148 165.831 117.7 164.208C116.269 162.586 114.392 161.775 112.07 161.775C109.764 161.775 107.863 162.562 106.368 164.137C104.889 165.695 104.149 167.819 104.149 170.507ZM129.51 170.507C129.51 167.978 130.083 165.688 131.228 163.636C132.389 161.584 134.003 159.978 136.071 158.817C138.138 157.655 140.461 157.075 143.037 157.075C145.614 157.075 147.928 157.663 149.98 158.84C152.047 160.017 153.646 161.632 154.775 163.683C155.92 165.719 156.493 167.994 156.493 170.507C156.493 173.02 155.912 175.302 154.751 177.354C153.606 179.39 152 180.996 149.932 182.173C147.864 183.334 145.55 183.915 142.989 183.915C139.077 183.915 135.848 182.65 133.303 180.121C130.774 177.577 129.51 174.372 129.51 170.507ZM134.735 170.507C134.735 173.052 135.506 175.151 137.049 176.805C138.608 178.443 140.588 179.262 142.989 179.262C145.407 179.262 147.387 178.435 148.93 176.781C150.489 175.127 151.268 173.036 151.268 170.507C151.268 167.962 150.489 165.87 148.93 164.232C147.387 162.594 145.407 161.775 142.989 161.775C140.572 161.775 138.592 162.602 137.049 164.256C135.506 165.894 134.735 167.978 134.735 170.507ZM164.294 180.217C162.004 177.752 160.859 174.539 160.859 170.578C160.859 166.618 161.996 163.381 164.27 160.868C166.545 158.339 169.463 157.075 173.026 157.075C174.171 157.075 175.245 157.234 176.247 157.552C177.249 157.87 178.084 158.284 178.752 158.793C179.436 159.302 179.977 159.771 180.374 160.2C180.772 160.614 181.106 161.027 181.376 161.441H181.734V157.719H186.864V183.271H181.83V179.644H181.519C179.5 182.491 176.748 183.915 173.265 183.915C169.591 183.915 166.601 182.682 164.294 180.217ZM166.084 170.507C166.084 173.147 166.807 175.27 168.255 176.877C169.718 178.467 171.634 179.262 174.004 179.262C176.39 179.262 178.299 178.427 179.73 176.757C181.162 175.087 181.877 173.004 181.877 170.507C181.877 167.819 181.13 165.695 179.635 164.137C178.156 162.562 176.263 161.775 173.957 161.775C171.634 161.775 169.742 162.594 168.279 164.232C166.815 165.855 166.084 167.946 166.084 170.507ZM194.259 183.271V157.719H199.198V162.157H199.532C199.977 160.98 200.812 159.938 202.037 159.031C203.262 158.125 204.709 157.671 206.379 157.671H208.622V162.658H206.236C204.105 162.658 202.427 163.389 201.202 164.853C199.993 166.316 199.389 168.256 199.389 170.674V183.271H194.259ZM215.206 180.217C212.916 177.752 211.771 174.539 211.771 170.578C211.771 166.618 212.908 163.381 215.183 160.868C217.457 158.339 220.376 157.075 223.938 157.075C225.083 157.075 226.157 157.234 227.159 157.552C228.161 157.87 228.996 158.284 229.664 158.793C230.348 159.302 230.889 159.771 231.286 160.2C231.684 160.614 232.018 161.027 232.288 161.441H232.646V146.625H237.776V183.271H232.742V179.644H232.432C230.412 182.491 227.66 183.915 224.177 183.915C220.503 183.915 217.513 182.682 215.206 180.217ZM216.996 170.507C216.996 173.147 217.719 175.27 219.167 176.877C220.63 178.467 222.547 179.262 224.916 179.262C227.302 179.262 229.211 178.427 230.642 176.757C232.074 175.087 232.789 173.004 232.789 170.507C232.789 167.819 232.042 165.695 230.547 164.137C229.068 162.562 227.175 161.775 224.869 161.775C222.547 161.775 220.654 162.594 219.191 164.232C217.727 165.855 216.996 167.946 216.996 170.507ZM244.384 150.443C244.384 149.504 244.702 148.733 245.339 148.128C245.975 147.524 246.778 147.222 247.748 147.222C248.75 147.222 249.569 147.524 250.205 148.128C250.858 148.733 251.184 149.504 251.184 150.443C251.184 151.413 250.858 152.2 250.205 152.804C249.569 153.409 248.75 153.711 247.748 153.711C246.762 153.711 245.951 153.409 245.315 152.804C244.694 152.2 244.384 151.413 244.384 150.443ZM245.172 183.271V157.719H250.301V183.271H245.172ZM257.673 183.271V157.719H262.659V161.131H262.993C263.55 159.986 264.488 159.023 265.808 158.244C267.128 157.465 268.687 157.075 270.484 157.075C273.331 157.075 275.606 157.997 277.308 159.842C279.01 161.687 279.86 164.025 279.86 166.857V183.271H274.731V167.835C274.731 166.069 274.182 164.638 273.085 163.54C272.003 162.427 270.643 161.87 269.005 161.87C267.224 161.87 265.745 162.491 264.568 163.731C263.391 164.956 262.802 166.499 262.802 168.36V183.271H257.673ZM288.903 180.121C286.596 177.64 285.443 174.419 285.443 170.459C285.443 166.499 286.58 163.278 288.855 160.797C291.145 158.316 294.048 157.075 297.563 157.075C298.724 157.075 299.805 157.234 300.807 157.552C301.825 157.87 302.668 158.284 303.336 158.793C304.02 159.286 304.569 159.755 304.983 160.2C305.396 160.63 305.722 161.043 305.961 161.441H306.319V157.719H311.448V183.175C311.448 186.849 310.327 189.76 308.084 191.907C305.841 194.07 302.708 195.152 298.684 195.152C295.392 195.152 292.744 194.348 290.74 192.742C288.736 191.152 287.574 189.132 287.256 186.682H292.004C292.306 187.986 293.038 189.004 294.199 189.736C295.376 190.468 296.871 190.833 298.684 190.833C301.261 190.833 303.193 190.165 304.482 188.829C305.77 187.509 306.414 185.625 306.414 183.175V179.501H306.056C305.865 179.787 305.651 180.074 305.412 180.36C305.173 180.646 304.8 181.012 304.291 181.457C303.782 181.903 303.241 182.292 302.668 182.626C302.112 182.945 301.396 183.223 300.521 183.461C299.662 183.7 298.756 183.819 297.801 183.819C294.191 183.819 291.225 182.587 288.903 180.121ZM290.668 170.459C290.668 173.099 291.392 175.215 292.839 176.805C294.302 178.38 296.219 179.167 298.589 179.167C300.974 179.167 302.883 178.34 304.315 176.686C305.746 175.032 306.462 172.956 306.462 170.459C306.462 167.771 305.714 165.656 304.219 164.113C302.74 162.554 300.847 161.775 298.541 161.775C296.219 161.775 294.326 162.586 292.863 164.208C291.4 165.815 290.668 167.898 290.668 170.459Z" fill="#5A5560"/>
</svg>
